<?xml version="1.0" encoding="UTF-8"?>
<svg id="Layer_2" data-name="Layer 2" xmlns="http://www.w3.org/2000/svg" viewBox="0 0 178.66 178.66">
  <defs>
    <style>
      .cls-1 {
        fill: #627792;
      }

      .cls-1, .cls-2, .cls-3 {
        stroke-width: 0px;
      }

      .cls-2 {
        fill: #e84825;
      }

      .cls-3 {
        fill: #3d5466;
      }
    </style>
  </defs>
  <g id="Layer_1-2" data-name="Layer 1">
    <g>
      <polygon class="cls-1" points="89.42 62.33 89.33 62.06 83.03 81.9 89.37 90.09 89.42 62.33"/>
      <polygon class="cls-1" points="83.03 81.9 73.25 112.73 89.33 99.21 89.36 99.23 89.37 90.09 83.03 81.9"/>
      <polygon class="cls-3" points="89.33 62.07 89.35 90.06 104.38 109.49 89.33 62.07"/>
      <polygon class="cls-3" points="89.35 90.06 89.36 99.23 105.41 112.73 104.38 109.49 89.35 90.06"/>
    </g>
    <path class="cls-1" d="M150.19,81.67c2.87,23.12-7.58,46.91-28.68,59.9-28.81,17.74-66.68,8.73-84.42-20.07-17.74-28.81-8.73-66.68,20.07-84.42,16.43-10.12,35.8-11.52,52.7-5.53l10.06-26.14C95.14-3.59,66.63-1.62,42.48,13.24.53,39.08-12.59,94.23,13.25,136.18s80.99,55.07,122.94,29.23c29.61-18.23,44.85-51.06,42.18-83.56l-28.17-.19Z"/>
    <path class="cls-2" d="M54.42,92.96c-1.65-13.26,4.35-26.91,16.45-34.36,16.53-10.18,38.25-5.01,48.43,11.52,10.18,16.53,5.01,38.25-11.52,48.43-9.42,5.8-20.54,6.61-30.24,3.17l-5.77,14.99c14.22,5.17,30.58,4.04,44.43-4.49,24.07-14.82,31.59-46.46,16.77-70.53-14.82-24.07-46.46-31.59-70.53-16.77-16.99,10.46-25.73,29.29-24.2,47.93l16.16.11Z"/>
  </g>
</svg>