<?xml version="1.0" encoding="UTF-8"?>
<svg id="Layer_2" data-name="Layer 2" xmlns="http://www.w3.org/2000/svg" viewBox="0 0 331.09 178.98">
  <defs>
    <style>
      .cls-1 {
        fill: #627792;
      }

      .cls-1, .cls-2, .cls-3 {
        stroke-width: 0px;
      }

      .cls-2, .cls-4 {
        fill: #e84825;
      }

      .cls-4, .cls-5 {
        font-family: ProximaNova-Extrabld, 'Proxima Nova';
        font-size: 36px;
      }

      .cls-5, .cls-3 {
        fill: #3d5466;
      }
    </style>
  </defs>
  <g id="Layer_1-2" data-name="Layer 1">
    <g>
      <polygon class="cls-1" points="89.42 62.64 89.33 62.37 83.03 82.22 89.37 90.4 89.42 62.64"/>
      <polygon class="cls-1" points="83.03 82.22 73.25 113.05 89.33 99.52 89.36 99.54 89.37 90.4 83.03 82.22"/>
      <polygon class="cls-3" points="89.33 62.38 89.35 90.38 104.38 109.8 89.33 62.38"/>
      <polygon class="cls-3" points="89.35 90.38 89.36 99.54 105.41 113.05 104.38 109.8 89.35 90.38"/>
    </g>
    <path class="cls-1" d="M150.19,81.99c2.87,23.12-7.58,46.91-28.68,59.9-28.81,17.74-66.68,8.73-84.42-20.07-17.74-28.81-8.73-66.68,20.07-84.42,16.43-10.12,35.8-11.52,52.7-5.53l10.06-26.14C95.14-3.27,66.63-1.31,42.48,13.56.53,39.39-12.59,94.54,13.25,136.5s80.99,55.07,122.94,29.23c29.61-18.23,44.85-51.06,42.18-83.56l-28.17-.19Z"/>
    <path class="cls-2" d="M54.42,93.27c-1.65-13.26,4.35-26.91,16.45-34.36,16.53-10.18,38.25-5.01,48.43,11.52,10.18,16.53,5.01,38.25-11.52,48.43-9.42,5.8-20.54,6.61-30.24,3.17l-5.77,14.99c14.22,5.17,30.58,4.04,44.43-4.49,24.07-14.82,31.59-46.46,16.77-70.53-14.82-24.07-46.46-31.59-70.53-16.77-16.99,10.46-25.73,29.29-24.2,47.93l16.16.11Z"/>
    <text class="cls-4" transform="translate(134.65 29.99)"><tspan x="0" y="0">City</tspan></text>
    <text class="cls-5" transform="translate(158.64 70.16)"><tspan x="0" y="0">Compass</tspan></text>
  </g>
</svg>